<?xml version="1.0" encoding="UTF-8"?> <svg xmlns="http://www.w3.org/2000/svg" width="1636" height="271" viewBox="0 0 1636 271" fill="none"><path d="M229 241.058H191.144C191.144 241.058 144.824 155.77 114.508 99.9511C114.119 99.2343 113.092 99.279 112.738 100.014L44.9522 241.058H7.09616" stroke="#212121" stroke-width="14" stroke-linecap="round"></path><path d="M87.4247 155.19H141.9" stroke="#212121" stroke-width="15" stroke-linecap="round"></path><circle cx="114.509" cy="57.0104" r="33.0104" stroke="#F2D14E" stroke-width="14"></circle><path d="M326.85 119.9C326.05 122.9 324.8 125 323.1 126.2C321.5 127.4 319.05 128 315.75 128H311.7C311.1 128 310.65 127.8 310.35 127.4C310.05 126.9 309.9 126.4 309.9 125.9C309.9 125.4 310 124.75 310.2 123.95C310.5 123.15 310.85 122.1 311.25 120.8L331.8 53.3C333 49.4 334.1 46.15 335.1 43.55C336.1 40.95 337 38.8 337.8 37.1C338.7 35.4 339.55 34.05 340.35 33.05C341.15 32.05 341.95 31.2 342.75 30.5C344.35 29.1 346.55 28 349.35 27.2C352.25 26.4 355.95 26 360.45 26C364.95 26 368.45 26.35 370.95 27.05C373.55 27.65 375.65 28.65 377.25 30.05C377.95 30.65 378.65 31.5 379.35 32.6C380.15 33.6 380.95 34.95 381.75 36.65C382.65 38.35 383.5 40.5 384.3 43.1C385.2 45.7 386.2 48.85 387.3 52.55L407.25 122C407.65 123.3 407.9 124.2 408 124.7C408.1 125.2 408.15 125.75 408.15 126.35C408.15 127.45 407.45 128 406.05 128H400.8C397.7 128 395.4 127.4 393.9 126.2C392.4 125 391.2 122.8 390.3 119.6L383.55 96.5C382.95 94.8 382.2 93.65 381.3 93.05C380.4 92.35 378.55 92 375.75 92H341.25C338.75 92 337 92.35 336 93.05C335.1 93.75 334.25 95.3 333.45 97.7L326.85 119.9ZM378 76.55C378 75.95 377.8 75 377.4 73.7C377.1 72.3 376.7 70.6 376.2 68.6L372.3 54.95C371.1 50.45 370.05 47.25 369.15 45.35C368.25 43.35 367.4 41.95 366.6 41.15C365.8 40.55 364.85 40.1 363.75 39.8C362.65 39.5 361.2 39.35 359.4 39.35C357.6 39.35 356.15 39.55 355.05 39.95C353.95 40.25 353 40.65 352.2 41.15C351.7 41.55 351.2 42.05 350.7 42.65C350.3 43.25 349.8 44.1 349.2 45.2C348.7 46.2 348.15 47.55 347.55 49.25C346.95 50.85 346.3 52.85 345.6 55.25L341.55 69.05C341.05 70.75 340.65 72.3 340.35 73.7C340.05 75 339.9 75.9 339.9 76.4C339.9 77.6 340.25 78.45 340.95 78.95C341.65 79.45 343.15 79.7 345.45 79.7H373.05C375.15 79.7 376.5 79.4 377.1 78.8C377.7 78.2 378 77.45 378 76.55ZM475.201 125.6C475.201 127.2 474.451 128 472.951 128H461.401C460.301 128 459.751 127.35 459.751 126.05V45.35C459.751 43.25 459.301 41.95 458.401 41.45C457.601 40.95 456.051 40.95 453.751 41.45L430.801 45.95C429.401 46.15 428.701 45.75 428.701 44.75C428.701 39.55 429.401 36.05 430.801 34.25C432.301 32.45 434.851 31.25 438.451 30.65L472.201 24.05C473.301 23.85 474.051 23.95 474.451 24.35C474.951 24.65 475.201 25.45 475.201 26.75V125.6ZM520.989 84.5C519.589 84.5 518.889 83.8 518.889 82.4C518.889 81.9 519.039 81.15 519.339 80.15C519.739 79.15 520.189 78.15 520.689 77.15C521.189 76.05 521.789 75.05 522.489 74.15C523.189 73.15 523.839 72.45 524.439 72.05C525.239 71.55 526.189 71.25 527.289 71.15C528.389 70.95 529.789 70.85 531.489 70.85H573.789C575.289 70.85 576.039 71.6 576.039 73.1C576.039 73.6 575.839 74.35 575.439 75.35C575.139 76.25 574.689 77.25 574.089 78.35C573.589 79.35 572.989 80.35 572.289 81.35C571.589 82.25 570.889 82.9 570.189 83.3C569.389 83.8 568.439 84.15 567.339 84.35C566.239 84.45 564.839 84.5 563.139 84.5H520.989ZM614.317 123.65C614.317 126.55 612.867 128 609.967 128H601.117C600.417 128 599.917 127.8 599.617 127.4C599.417 126.9 599.317 126.35 599.317 125.75V30.8C599.317 28 600.617 26.6 603.217 26.6H612.517C613.317 26.6 613.817 26.8 614.017 27.2C614.217 27.6 614.317 28.15 614.317 28.85V123.65ZM681.045 125.15C681.045 127.05 680.195 128 678.495 128H667.845C666.545 128 665.895 127.3 665.895 125.9V47.75C665.895 45.85 665.795 44.35 665.595 43.25C665.495 42.05 665.145 41.15 664.545 40.55C663.945 39.85 663.045 39.4 661.845 39.2C660.645 39 659.045 38.9 657.045 38.9H630.795C629.795 38.9 629.295 38.45 629.295 37.55C629.295 35.75 629.645 33.85 630.345 31.85C631.145 29.75 631.945 28.4 632.745 27.8C633.545 27.3 634.545 27 635.745 26.9C637.045 26.7 638.695 26.6 640.695 26.6H716.445C717.245 26.6 717.745 26.75 717.945 27.05C718.145 27.35 718.245 27.8 718.245 28.4C718.245 30.3 717.895 32.25 717.195 34.25C716.595 36.15 715.895 37.35 715.095 37.85C714.595 38.35 713.845 38.65 712.845 38.75C711.945 38.85 710.645 38.9 708.945 38.9H689.445C687.645 38.9 686.195 39 685.095 39.2C683.995 39.4 683.145 39.85 682.545 40.55C681.945 41.15 681.545 42.1 681.345 43.4C681.145 44.6 681.045 46.2 681.045 48.2V125.15ZM715.747 53.15C715.747 51.85 716.447 51.05 717.847 50.75C721.847 50.25 726.297 49.8 731.197 49.4C736.097 48.9 740.747 48.65 745.147 48.65C749.247 48.65 752.747 48.75 755.647 48.95C758.647 49.15 760.847 49.6 762.247 50.3C763.747 51.1 764.997 52.55 765.997 54.65C766.997 56.65 767.497 58.65 767.497 60.65C767.497 61.25 767.297 61.75 766.897 62.15C766.497 62.45 766.047 62.55 765.547 62.45C763.647 62.25 761.247 62.1 758.347 62C755.447 61.8 752.747 61.7 750.247 61.7C747.647 61.7 745.047 61.75 742.447 61.85C739.847 61.95 737.397 62.1 735.097 62.3C734.197 62.5 733.447 62.7 732.847 62.9C732.247 63.1 731.747 63.4 731.347 63.8C731.047 64.2 730.847 64.75 730.747 65.45C730.647 66.15 730.597 67.15 730.597 68.45V125.9C730.597 127.3 729.897 128 728.497 128H717.697C716.397 128 715.747 127.3 715.747 125.9V53.15ZM777.905 89.45C777.905 80.55 778.955 73.35 781.055 67.85C783.155 62.35 785.855 58.2 789.155 55.4C791.755 53.2 795.255 51.5 799.655 50.3C804.055 49 809.555 48.35 816.155 48.35C822.655 48.35 827.805 48.9 831.605 50C835.505 51 838.605 52.5 840.905 54.5C842.205 55.7 843.355 57.15 844.355 58.85C845.455 60.55 846.355 62.75 847.055 65.45C847.855 68.05 848.455 71.2 848.855 74.9C849.355 78.6 849.605 83 849.605 88.1C849.605 89.9 849.355 91.2 848.855 92C848.355 92.8 847.355 93.2 845.855 93.2H798.455C796.255 93.2 794.855 93.4 794.255 93.8C793.655 94.2 793.355 94.95 793.355 96.05C793.355 99.55 793.755 102.65 794.555 105.35C795.355 107.95 796.705 110.05 798.605 111.65C800.305 113.25 802.905 114.4 806.405 115.1C810.005 115.8 814.305 116.15 819.305 116.15C824.405 116.15 829.205 115.9 833.705 115.4C838.205 114.8 841.755 114.25 844.355 113.75C844.855 113.65 845.305 113.8 845.705 114.2C846.205 114.5 846.455 115 846.455 115.7C846.455 116.5 846.255 117.4 845.855 118.4C845.555 119.4 845.105 120.4 844.505 121.4C843.905 122.3 843.205 123.2 842.405 124.1C841.705 125 840.955 125.65 840.155 126.05C838.655 126.85 835.855 127.55 831.755 128.15C827.655 128.75 822.455 129.05 816.155 129.05C808.955 129.05 803.005 128.45 798.305 127.25C793.705 125.95 790.105 124.1 787.505 121.7C786.005 120.4 784.655 118.85 783.455 117.05C782.355 115.25 781.355 113.1 780.455 110.6C779.655 108 779.005 105 778.505 101.6C778.105 98.2 777.905 94.15 777.905 89.45ZM814.955 60.05C807.755 60.05 802.505 61.45 799.205 64.25C798.205 65.05 797.355 66.1 796.655 67.4C795.955 68.6 795.355 69.9 794.855 71.3C794.455 72.7 794.105 74.1 793.805 75.5C793.605 76.9 793.505 78.2 793.505 79.4C793.505 80.5 793.805 81.2 794.405 81.5C795.005 81.8 796.305 81.95 798.305 81.95H826.055C827.955 81.95 829.505 81.95 830.705 81.95C832.005 81.95 832.855 81.75 833.255 81.35C833.755 80.85 834.055 80.35 834.155 79.85C834.255 79.35 834.305 78.75 834.305 78.05C834.305 74.85 833.905 71.95 833.105 69.35C832.405 66.65 831.255 64.65 829.655 63.35C828.355 62.35 826.505 61.55 824.105 60.95C821.805 60.35 818.755 60.05 814.955 60.05ZM928 51.05C929.5 51.95 930.65 53.35 931.45 55.25C932.35 57.15 932.8 58.8 932.8 60.2C932.8 61 932.45 61.7 931.75 62.3C931.15 62.8 930.6 62.95 930.1 62.75C927.5 62.45 924.55 62.15 921.25 61.85C917.95 61.55 914.2 61.4 910 61.4C904.3 61.4 899.8 61.8 896.5 62.6C893.3 63.3 890.9 64.35 889.3 65.75C887.4 67.45 885.8 70.15 884.5 73.85C883.2 77.45 882.55 82.3 882.55 88.4C882.55 95.3 883 100.45 883.9 103.85C884.9 107.25 886.4 109.8 888.4 111.5C892 114.5 898.9 116 909.1 116C914.2 116 918.4 115.8 921.7 115.4C925.1 114.9 928.05 114.5 930.55 114.2C931.05 114 931.55 114.1 932.05 114.5C932.55 114.8 932.8 115.3 932.8 116C932.8 116.7 932.6 117.55 932.2 118.55C931.9 119.45 931.5 120.4 931 121.4C930.5 122.4 929.9 123.35 929.2 124.25C928.5 125.15 927.8 125.8 927.1 126.2C925.7 127 923.05 127.65 919.15 128.15C915.35 128.75 910.6 129.05 904.9 129.05C897.7 129.05 892 128.45 887.8 127.25C883.6 125.95 880.15 124.15 877.45 121.85C874.55 119.35 872.2 115.6 870.4 110.6C868.6 105.6 867.7 98.5 867.7 89.3C867.7 80.6 868.8 73.55 871 68.15C873.2 62.75 875.9 58.6 879.1 55.7C881.7 53.4 885.3 51.6 889.9 50.3C894.5 49 900.55 48.35 908.05 48.35C918.65 48.35 925.3 49.25 928 51.05ZM951.587 53.15C951.587 51.85 952.287 51.05 953.687 50.75C957.687 50.25 962.137 49.8 967.037 49.4C971.937 48.9 976.587 48.65 980.987 48.65C985.087 48.65 988.587 48.75 991.487 48.95C994.487 49.15 996.687 49.6 998.087 50.3C999.587 51.1 1000.84 52.55 1001.84 54.65C1002.84 56.65 1003.34 58.65 1003.34 60.65C1003.34 61.25 1003.14 61.75 1002.74 62.15C1002.34 62.45 1001.89 62.55 1001.39 62.45C999.487 62.25 997.087 62.1 994.187 62C991.287 61.8 988.587 61.7 986.087 61.7C983.487 61.7 980.887 61.75 978.287 61.85C975.687 61.95 973.237 62.1 970.937 62.3C970.037 62.5 969.287 62.7 968.687 62.9C968.087 63.1 967.587 63.4 967.187 63.8C966.887 64.2 966.687 64.75 966.587 65.45C966.487 66.15 966.437 67.15 966.437 68.45V125.9C966.437 127.3 965.737 128 964.337 128H953.537C952.237 128 951.587 127.3 951.587 125.9V53.15ZM1087.84 123.65C1087.84 124.85 1087.14 125.6 1085.74 125.9C1084.04 126.3 1081.94 126.7 1079.44 127.1C1077.04 127.4 1074.39 127.7 1071.49 128C1068.59 128.3 1065.54 128.5 1062.34 128.6C1059.14 128.8 1055.94 128.9 1052.74 128.9C1044.44 128.9 1037.94 128.25 1033.24 126.95C1028.64 125.65 1025.19 123.85 1022.89 121.55C1021.89 120.45 1021.04 119.25 1020.34 117.95C1019.64 116.55 1019.09 114.95 1018.69 113.15C1018.29 111.35 1017.99 109.3 1017.79 107C1017.69 104.6 1017.64 101.8 1017.64 98.6V51.65C1017.64 50.35 1018.19 49.7 1019.29 49.7H1027.84C1029.74 49.7 1030.94 50.05 1031.44 50.75C1032.04 51.35 1032.34 52.5 1032.34 54.2V96.65C1032.34 100.85 1032.59 104.05 1033.09 106.25C1033.69 108.45 1034.54 110.2 1035.64 111.5C1037.04 112.9 1039.14 114.05 1041.94 114.95C1044.74 115.75 1048.59 116.15 1053.49 116.15C1056.39 116.15 1059.14 116.05 1061.74 115.85C1064.44 115.65 1066.64 115.35 1068.34 114.95C1070.04 114.65 1071.24 114.1 1071.94 113.3C1072.64 112.4 1072.99 110.95 1072.99 108.95V51.65C1072.99 50.35 1073.64 49.7 1074.94 49.7H1085.74C1087.14 49.7 1087.84 50.45 1087.84 51.95V123.65ZM1130.35 125.9C1130.35 127.3 1129.7 128 1128.4 128H1117C1116.2 128 1115.7 127.85 1115.5 127.55C1115.4 127.25 1115.35 126.7 1115.35 125.9V51.8C1115.35 50.4 1116.1 49.7 1117.6 49.7H1128.55C1129.35 49.7 1129.85 49.85 1130.05 50.15C1130.25 50.45 1130.35 51 1130.35 51.8V125.9ZM1132.6 26.15C1132.6 29.55 1131.9 31.75 1130.5 32.75C1129.5 33.45 1128.25 33.9 1126.75 34.1C1125.35 34.2 1124.1 34.25 1123 34.25C1119.3 34.25 1116.8 33.75 1115.5 32.75C1114.3 31.85 1113.7 29.85 1113.7 26.75C1113.7 23.15 1114.4 20.9 1115.8 20C1116.6 19.4 1117.65 19 1118.95 18.8C1120.25 18.5 1121.75 18.35 1123.45 18.35C1125.15 18.35 1126.65 18.45 1127.95 18.65C1129.25 18.85 1130.15 19.25 1130.65 19.85C1131.35 20.35 1131.85 21.15 1132.15 22.25C1132.45 23.35 1132.6 24.65 1132.6 26.15ZM1161.88 38.9C1161.88 36.9 1161.98 35.4 1162.18 34.4C1162.38 33.3 1162.68 32.5 1163.08 32C1163.68 31.3 1164.88 30.65 1166.68 30.05C1168.48 29.35 1170.93 28.8 1174.03 28.4C1174.63 28.3 1175.13 28.45 1175.53 28.85C1176.03 29.25 1176.28 29.85 1176.28 30.65V41.45C1176.28 43.35 1176.33 44.85 1176.43 45.95C1176.63 47.05 1176.98 47.9 1177.48 48.5C1177.98 49 1178.78 49.35 1179.88 49.55C1180.98 49.65 1182.43 49.7 1184.23 49.7H1208.38C1209.88 49.7 1210.63 50.35 1210.63 51.65C1210.63 52.55 1210.38 53.5 1209.88 54.5C1209.48 55.5 1208.98 56.45 1208.38 57.35C1207.78 58.25 1207.13 59.05 1206.43 59.75C1205.83 60.35 1205.33 60.75 1204.93 60.95C1204.13 61.35 1203.33 61.6 1202.53 61.7C1201.83 61.8 1200.73 61.85 1199.23 61.85H1183.03C1180.13 61.85 1178.28 62.25 1177.48 63.05C1176.68 63.85 1176.28 65.7 1176.28 68.6V100.4C1176.28 104.7 1176.48 107.75 1176.88 109.55C1177.38 111.35 1178.08 112.7 1178.98 113.6C1179.98 114.5 1181.48 115.15 1183.48 115.55C1185.58 115.95 1188.48 116.15 1192.18 116.15C1195.18 116.15 1197.88 116.05 1200.28 115.85C1202.78 115.65 1204.93 115.4 1206.73 115.1C1207.23 115 1207.73 115.15 1208.23 115.55C1208.73 115.85 1208.98 116.3 1208.98 116.9C1208.98 117.8 1208.78 118.75 1208.38 119.75C1207.98 120.65 1207.48 121.55 1206.88 122.45C1206.28 123.35 1205.58 124.15 1204.78 124.85C1204.08 125.55 1203.38 126.1 1202.68 126.5C1201.58 127.1 1199.78 127.6 1197.28 128C1194.78 128.4 1191.13 128.6 1186.33 128.6C1181.03 128.6 1176.78 128.2 1173.58 127.4C1170.38 126.6 1167.93 125.4 1166.23 123.8C1165.43 123 1164.73 122.1 1164.13 121.1C1163.63 120 1163.18 118.7 1162.78 117.2C1162.48 115.7 1162.23 113.9 1162.03 111.8C1161.93 109.6 1161.88 106.9 1161.88 103.7V68.45C1161.88 65.35 1161.48 63.5 1160.68 62.9C1159.88 62.2 1158.33 61.85 1156.03 61.85H1149.58C1148.98 61.85 1148.53 61.7 1148.23 61.4C1148.03 61 1147.93 60.6 1147.93 60.2C1147.93 59.3 1148.08 58.35 1148.38 57.35C1148.68 56.25 1149.03 55.25 1149.43 54.35C1149.93 53.45 1150.43 52.65 1150.93 51.95C1151.43 51.25 1151.93 50.75 1152.43 50.45C1153.43 49.95 1154.78 49.7 1156.48 49.7H1158.73C1160.83 49.7 1161.88 48.3 1161.88 45.5V38.9ZM1286.25 48.8C1294.55 48.8 1301.6 48.95 1307.4 49.25C1313.3 49.55 1318.2 50 1322.1 50.6C1326.1 51.2 1329.3 51.95 1331.7 52.85C1334.1 53.65 1335.95 54.65 1337.25 55.85C1338.45 56.95 1339.45 58.2 1340.25 59.6C1341.05 60.9 1341.65 62.5 1342.05 64.4C1342.45 66.2 1342.7 68.4 1342.8 71C1343 73.5 1343.1 76.5 1343.1 80V125.9C1343.1 127.3 1342.5 128 1341.3 128H1333.2C1331.4 128 1330.1 127.7 1329.3 127.1C1328.6 126.4 1328.25 124.85 1328.25 122.45V83.6C1328.25 78.3 1328 74.35 1327.5 71.75C1327.1 69.15 1326.2 67.15 1324.8 65.75C1323.4 64.35 1320.3 63.35 1315.5 62.75C1310.8 62.05 1304 61.7 1295.1 61.7C1293.6 61.7 1292.65 62.1 1292.25 62.9C1291.95 63.7 1291.8 64.85 1291.8 66.35V125.75C1291.8 127.25 1291.15 128 1289.85 128H1278.45C1277.45 128 1276.95 127.25 1276.95 125.75V66.35C1276.95 64.65 1276.75 63.45 1276.35 62.75C1276.05 62.05 1275.05 61.7 1273.35 61.7C1267.15 61.7 1261.55 61.85 1256.55 62.15C1251.55 62.45 1247.65 62.85 1244.85 63.35C1243.15 63.55 1242.05 64 1241.55 64.7C1241.05 65.4 1240.8 66.85 1240.8 69.05V125.75C1240.8 127.25 1240.15 128 1238.85 128H1227.6C1226.5 128 1225.95 127.3 1225.95 125.9V54.05C1225.95 52.95 1226.6 52.25 1227.9 51.95C1235.1 51.25 1243.5 50.55 1253.1 49.85C1262.8 49.15 1273.85 48.8 1286.25 48.8ZM1366.19 89.45C1366.19 80.55 1367.24 73.35 1369.34 67.85C1371.44 62.35 1374.14 58.2 1377.44 55.4C1380.04 53.2 1383.54 51.5 1387.94 50.3C1392.34 49 1397.84 48.35 1404.44 48.35C1410.94 48.35 1416.09 48.9 1419.89 50C1423.79 51 1426.89 52.5 1429.19 54.5C1430.49 55.7 1431.64 57.15 1432.64 58.85C1433.74 60.55 1434.64 62.75 1435.34 65.45C1436.14 68.05 1436.74 71.2 1437.14 74.9C1437.64 78.6 1437.89 83 1437.89 88.1C1437.89 89.9 1437.64 91.2 1437.14 92C1436.64 92.8 1435.64 93.2 1434.14 93.2H1386.74C1384.54 93.2 1383.14 93.4 1382.54 93.8C1381.94 94.2 1381.64 94.95 1381.64 96.05C1381.64 99.55 1382.04 102.65 1382.84 105.35C1383.64 107.95 1384.99 110.05 1386.89 111.65C1388.59 113.25 1391.19 114.4 1394.69 115.1C1398.29 115.8 1402.59 116.15 1407.59 116.15C1412.69 116.15 1417.49 115.9 1421.99 115.4C1426.49 114.8 1430.04 114.25 1432.64 113.75C1433.14 113.65 1433.59 113.8 1433.99 114.2C1434.49 114.5 1434.74 115 1434.74 115.7C1434.74 116.5 1434.54 117.4 1434.14 118.4C1433.84 119.4 1433.39 120.4 1432.79 121.4C1432.19 122.3 1431.49 123.2 1430.69 124.1C1429.99 125 1429.24 125.65 1428.44 126.05C1426.94 126.85 1424.14 127.55 1420.04 128.15C1415.94 128.75 1410.74 129.05 1404.44 129.05C1397.24 129.05 1391.29 128.45 1386.59 127.25C1381.99 125.95 1378.39 124.1 1375.79 121.7C1374.29 120.4 1372.94 118.85 1371.74 117.05C1370.64 115.25 1369.64 113.1 1368.74 110.6C1367.94 108 1367.29 105 1366.79 101.6C1366.39 98.2 1366.19 94.15 1366.19 89.45ZM1403.24 60.05C1396.04 60.05 1390.79 61.45 1387.49 64.25C1386.49 65.05 1385.64 66.1 1384.94 67.4C1384.24 68.6 1383.64 69.9 1383.14 71.3C1382.74 72.7 1382.39 74.1 1382.09 75.5C1381.89 76.9 1381.79 78.2 1381.79 79.4C1381.79 80.5 1382.09 81.2 1382.69 81.5C1383.29 81.8 1384.59 81.95 1386.59 81.95H1414.34C1416.24 81.95 1417.79 81.95 1418.99 81.95C1420.29 81.95 1421.14 81.75 1421.54 81.35C1422.04 80.85 1422.34 80.35 1422.44 79.85C1422.54 79.35 1422.59 78.75 1422.59 78.05C1422.59 74.85 1422.19 71.95 1421.39 69.35C1420.69 66.65 1419.54 64.65 1417.94 63.35C1416.64 62.35 1414.79 61.55 1412.39 60.95C1410.09 60.35 1407.04 60.05 1403.24 60.05ZM1530.53 126.05C1530.53 127.35 1529.93 128 1528.73 128H1519.58C1517.88 128 1516.78 127.65 1516.28 126.95C1515.88 126.25 1515.68 125.1 1515.68 123.5V81.65C1515.68 76.85 1515.38 73.3 1514.78 71C1514.18 68.7 1513.33 66.85 1512.23 65.45C1510.93 64.05 1509.03 63.05 1506.53 62.45C1504.13 61.75 1500.68 61.4 1496.18 61.4C1492.28 61.4 1488.93 61.5 1486.13 61.7C1483.43 61.8 1480.98 62 1478.78 62.3C1477.08 62.5 1476.03 62.95 1475.63 63.65C1475.23 64.35 1475.03 65.85 1475.03 68.15V125.9C1475.03 127.3 1474.43 128 1473.23 128H1462.13C1460.83 128 1460.18 127.3 1460.18 125.9V53.3C1460.18 52.2 1460.88 51.5 1462.28 51.2C1466.48 50.7 1471.63 50.15 1477.73 49.55C1483.93 48.95 1490.33 48.65 1496.93 48.65C1504.83 48.65 1510.88 49.2 1515.08 50.3C1519.38 51.3 1522.68 52.95 1524.98 55.25C1526.98 57.35 1528.38 60.1 1529.18 63.5C1530.08 66.9 1530.53 71.8 1530.53 78.2V126.05ZM1561.49 38.9C1561.49 36.9 1561.59 35.4 1561.79 34.4C1561.99 33.3 1562.29 32.5 1562.69 32C1563.29 31.3 1564.49 30.65 1566.29 30.05C1568.09 29.35 1570.54 28.8 1573.64 28.4C1574.24 28.3 1574.74 28.45 1575.14 28.85C1575.64 29.25 1575.89 29.85 1575.89 30.65V41.45C1575.89 43.35 1575.94 44.85 1576.04 45.95C1576.24 47.05 1576.59 47.9 1577.09 48.5C1577.59 49 1578.39 49.35 1579.49 49.55C1580.59 49.65 1582.04 49.7 1583.84 49.7H1607.99C1609.49 49.7 1610.24 50.35 1610.24 51.65C1610.24 52.55 1609.99 53.5 1609.49 54.5C1609.09 55.5 1608.59 56.45 1607.99 57.35C1607.39 58.25 1606.74 59.05 1606.04 59.75C1605.44 60.35 1604.94 60.75 1604.54 60.95C1603.74 61.35 1602.94 61.6 1602.14 61.7C1601.44 61.8 1600.34 61.85 1598.84 61.85H1582.64C1579.74 61.85 1577.89 62.25 1577.09 63.05C1576.29 63.85 1575.89 65.7 1575.89 68.6V100.4C1575.89 104.7 1576.09 107.75 1576.49 109.55C1576.99 111.35 1577.69 112.7 1578.59 113.6C1579.59 114.5 1581.09 115.15 1583.09 115.55C1585.19 115.95 1588.09 116.15 1591.79 116.15C1594.79 116.15 1597.49 116.05 1599.89 115.85C1602.39 115.65 1604.54 115.4 1606.34 115.1C1606.84 115 1607.34 115.15 1607.84 115.55C1608.34 115.85 1608.59 116.3 1608.59 116.9C1608.59 117.8 1608.39 118.75 1607.99 119.75C1607.59 120.65 1607.09 121.55 1606.49 122.45C1605.89 123.35 1605.19 124.15 1604.39 124.85C1603.69 125.55 1602.99 126.1 1602.29 126.5C1601.19 127.1 1599.39 127.6 1596.89 128C1594.39 128.4 1590.74 128.6 1585.94 128.6C1580.64 128.6 1576.39 128.2 1573.19 127.4C1569.99 126.6 1567.54 125.4 1565.84 123.8C1565.04 123 1564.34 122.1 1563.74 121.1C1563.24 120 1562.79 118.7 1562.39 117.2C1562.09 115.7 1561.84 113.9 1561.64 111.8C1561.54 109.6 1561.49 106.9 1561.49 103.7V68.45C1561.49 65.35 1561.09 63.5 1560.29 62.9C1559.49 62.2 1557.94 61.85 1555.64 61.85H1549.19C1548.59 61.85 1548.14 61.7 1547.84 61.4C1547.64 61 1547.54 60.6 1547.54 60.2C1547.54 59.3 1547.69 58.35 1547.99 57.35C1548.29 56.25 1548.64 55.25 1549.04 54.35C1549.54 53.45 1550.04 52.65 1550.54 51.95C1551.04 51.25 1551.54 50.75 1552.04 50.45C1553.04 49.95 1554.39 49.7 1556.09 49.7H1558.34C1560.44 49.7 1561.49 48.3 1561.49 45.5V38.9Z" fill="black"></path><path d="M309.815 178.015C309.815 177.385 310.025 176.93 310.445 176.65C310.865 176.3 311.355 176.125 311.915 176.125C315.135 175.985 318.32 175.88 321.47 175.81C324.69 175.74 328.54 175.705 333.02 175.705C338.48 175.705 343.1 175.775 346.88 175.915C350.66 175.985 353.04 176.195 354.02 176.545C354.51 176.755 355 177.14 355.49 177.7C356.05 178.26 356.505 178.925 356.855 179.695C357.205 180.395 357.485 181.13 357.695 181.9C357.975 182.67 358.115 183.405 358.115 184.105C358.115 184.455 357.94 184.805 357.59 185.155C357.24 185.435 356.82 185.54 356.33 185.47C354.16 185.33 351.15 185.225 347.3 185.155C343.52 185.015 339.53 184.945 335.33 184.945C332.67 184.945 330.395 184.98 328.505 185.05C326.615 185.05 324.865 185.12 323.255 185.26C322.135 185.33 321.4 185.575 321.05 185.995C320.77 186.345 320.63 187.08 320.63 188.2V206.68C320.63 207.45 320.77 207.975 321.05 208.255C321.4 208.535 321.96 208.675 322.73 208.675H354.125C355.175 208.675 355.7 209.165 355.7 210.145C355.7 210.495 355.56 211.02 355.28 211.72C355.07 212.35 354.79 213.015 354.44 213.715C354.09 214.415 353.67 215.08 353.18 215.71C352.76 216.34 352.305 216.795 351.815 217.075C351.255 217.425 350.625 217.67 349.925 217.81C349.225 217.88 348.28 217.915 347.09 217.915H322.94C322.03 217.915 321.4 218.09 321.05 218.44C320.77 218.79 320.63 219.42 320.63 220.33V243.01C320.63 244.62 320.315 245.705 319.685 246.265C319.125 246.755 318.145 247 316.745 247H310.97C310.55 247 310.235 246.86 310.025 246.58C309.885 246.3 309.815 245.985 309.815 245.635V178.015ZM381.624 243.955C381.624 245.985 380.609 247 378.579 247H372.384C371.894 247 371.544 246.86 371.334 246.58C371.194 246.23 371.124 245.845 371.124 245.425V178.96C371.124 177 372.034 176.02 373.854 176.02H380.364C380.924 176.02 381.274 176.16 381.414 176.44C381.554 176.72 381.624 177.105 381.624 177.595V243.955ZM466.343 236.71C466.343 239.02 466.098 240.805 465.608 242.065C465.188 243.255 464.628 244.235 463.928 245.005C463.298 245.775 462.248 246.405 460.778 246.895C459.378 247.385 457.173 247.63 454.163 247.63C451.503 247.63 449.438 247.42 447.968 247C446.498 246.65 445.308 246.125 444.398 245.425C442.718 244.025 441.073 241.26 439.463 237.13L419.828 189.25C418.988 187.36 418.253 186.135 417.623 185.575C417.063 184.945 416.153 184.63 414.893 184.63C413.703 184.63 412.933 184.875 412.583 185.365C412.233 185.785 412.058 186.52 412.058 187.57V242.17C412.058 244.13 411.603 245.425 410.693 246.055C409.783 246.685 408.313 247 406.283 247H403.763C402.853 247 402.398 246.475 402.398 245.425V187.045C402.398 184.455 402.608 182.46 403.028 181.06C403.448 179.59 404.043 178.505 404.813 177.805C405.513 177.175 406.598 176.65 408.068 176.23C409.538 175.74 411.603 175.495 414.263 175.495C417.063 175.495 419.198 175.705 420.668 176.125C422.138 176.475 423.293 176.965 424.133 177.595C425.043 178.295 425.883 179.345 426.653 180.745C427.493 182.075 428.403 184.035 429.383 186.625L448.913 234.295C449.683 235.975 450.348 237.13 450.908 237.76C451.538 238.32 452.448 238.6 453.638 238.6C454.828 238.6 455.598 238.25 455.948 237.55C456.298 236.85 456.473 235.905 456.473 234.715V180.745C456.473 179.135 456.788 177.945 457.418 177.175C458.118 176.405 459.588 176.02 461.828 176.02H464.663C465.363 176.02 465.818 176.16 466.028 176.44C466.238 176.72 466.343 177.105 466.343 177.595V236.71ZM548.103 210.775C548.103 219.105 547.088 225.86 545.058 231.04C543.028 236.15 540.613 239.72 537.813 241.75C535.363 243.71 532.003 245.145 527.733 246.055C523.533 246.965 518.213 247.42 511.773 247.42C507.573 247.42 503.583 247.385 499.803 247.315C496.023 247.245 492.558 247.14 489.408 247C488.918 246.93 488.393 246.755 487.833 246.475C487.273 246.125 486.993 245.39 486.993 244.27V178.54C486.993 177.63 487.238 177.07 487.728 176.86C488.218 176.58 488.673 176.475 489.093 176.545C492.243 176.405 495.813 176.3 499.803 176.23C503.793 176.09 508.098 176.02 512.718 176.02C516.568 176.02 519.893 176.16 522.693 176.44C525.563 176.65 528.048 177 530.148 177.49C532.318 177.98 534.173 178.61 535.713 179.38C537.253 180.08 538.618 180.92 539.808 181.9C541.978 183.72 543.903 186.94 545.583 191.56C547.263 196.18 548.103 202.585 548.103 210.775ZM536.868 211.09C536.868 204.93 536.343 200.135 535.293 196.705C534.243 193.205 532.843 190.65 531.093 189.04C529.343 187.5 526.893 186.485 523.743 185.995C520.663 185.505 516.988 185.26 512.718 185.26C510.478 185.26 508.133 185.295 505.683 185.365C503.303 185.435 501.378 185.505 499.908 185.575C498.788 185.715 498.088 185.96 497.808 186.31C497.598 186.66 497.493 187.325 497.493 188.305V235.03C497.493 236.01 497.703 236.71 498.123 237.13C498.613 237.48 499.348 237.655 500.328 237.655C503.058 237.865 507.363 237.97 513.243 237.97C517.863 237.97 521.468 237.655 524.058 237.025C526.648 236.395 528.643 235.555 530.043 234.505C531.723 233.175 533.263 230.585 534.663 226.735C536.133 222.885 536.868 217.67 536.868 211.09ZM619.252 217.18C618.272 218.79 617.572 220.4 617.152 222.01C616.802 223.55 616.627 225.475 616.627 227.785V244.795C616.627 245.565 616.487 246.125 616.207 246.475C615.997 246.825 615.507 247 614.737 247H607.492C606.512 247 606.022 246.51 606.022 245.53V228.625C606.022 226.245 605.847 224.215 605.497 222.535C605.147 220.855 604.377 219.035 603.187 217.075L579.352 178.12C579.002 177.56 578.967 177.07 579.247 176.65C579.527 176.23 580.052 176.02 580.822 176.02H584.182C586.492 176.02 588.347 176.37 589.747 177.07C591.147 177.77 592.442 179.275 593.632 181.585L607.492 204.79C608.262 206.05 608.962 207.1 609.592 207.94C610.292 208.71 610.922 209.095 611.482 209.095C612.392 209.095 613.757 207.8 615.577 205.21L629.437 182.32C630.067 181.06 630.697 180.045 631.327 179.275C632.027 178.435 632.762 177.805 633.532 177.385C634.302 176.895 635.142 176.545 636.052 176.335C637.032 176.125 638.187 176.02 639.517 176.02H642.352C642.912 176.02 643.297 176.195 643.507 176.545C643.787 176.895 643.752 177.35 643.402 177.91L619.252 217.18ZM712.983 210.985C712.983 219.525 712.003 226.315 710.043 231.355C708.083 236.325 705.808 239.895 703.218 242.065C700.768 244.025 697.618 245.53 693.768 246.58C689.988 247.63 685.368 248.155 679.908 248.155C673.888 248.155 669.058 247.56 665.418 246.37C661.778 245.11 658.908 243.395 656.808 241.225C654.498 239.055 652.573 235.73 651.033 231.25C649.493 226.7 648.723 220.365 648.723 212.245C648.723 204.195 649.668 197.65 651.558 192.61C653.518 187.57 655.828 183.895 658.488 181.585C660.588 179.765 663.528 178.26 667.308 177.07C671.158 175.81 675.918 175.18 681.588 175.18C687.538 175.18 692.333 175.74 695.973 176.86C699.613 177.98 702.553 179.485 704.793 181.375C706.963 183.405 708.853 186.8 710.463 191.56C712.143 196.32 712.983 202.795 712.983 210.985ZM702.063 211.405C702.063 205.245 701.538 200.275 700.488 196.495C699.508 192.715 698.143 190.02 696.393 188.41C694.853 186.94 692.718 185.925 689.988 185.365C687.258 184.735 684.318 184.42 681.168 184.42C677.178 184.42 673.923 184.84 671.403 185.68C668.953 186.52 667.098 187.535 665.838 188.725C664.158 190.195 662.653 192.89 661.323 196.81C659.993 200.73 659.328 205.77 659.328 211.93C659.328 218.02 659.853 222.885 660.903 226.525C661.953 230.165 663.318 232.79 664.998 234.4C666.468 235.87 668.463 236.99 670.983 237.76C673.573 238.46 676.548 238.81 679.908 238.81C683.898 238.81 687.188 238.495 689.778 237.865C692.368 237.165 694.328 236.255 695.658 235.135C697.408 233.665 698.913 231.04 700.173 227.26C701.433 223.41 702.063 218.125 702.063 211.405ZM788.378 220.435C788.378 223.445 788.273 226.07 788.063 228.31C787.853 230.48 787.503 232.405 787.013 234.085C786.523 235.765 785.893 237.2 785.123 238.39C784.423 239.58 783.548 240.665 782.498 241.645C780.748 243.255 777.948 244.725 774.098 246.055C770.248 247.315 765.173 247.945 758.873 247.945C752.713 247.945 747.638 247.315 743.648 246.055C739.658 244.725 736.753 243.045 734.933 241.015C734.093 240.035 733.358 238.95 732.728 237.76C732.168 236.57 731.678 235.24 731.258 233.77C730.908 232.23 730.663 230.445 730.523 228.415C730.383 226.385 730.313 224.04 730.313 221.38V177.49C730.313 176.51 730.733 176.02 731.573 176.02H735.143C736.263 176.02 737.208 176.09 737.978 176.23C738.748 176.3 739.343 176.545 739.763 176.965C740.253 177.315 740.568 177.875 740.708 178.645C740.918 179.415 741.023 180.465 741.023 181.795V219.91C741.023 221.94 741.058 223.725 741.128 225.265C741.268 226.735 741.443 228.03 741.653 229.15C741.933 230.27 742.248 231.25 742.598 232.09C743.018 232.86 743.508 233.56 744.068 234.19C745.118 235.38 746.868 236.395 749.318 237.235C751.838 238.005 755.058 238.39 758.978 238.39C762.828 238.39 765.978 238.075 768.428 237.445C770.948 236.745 772.838 235.8 774.098 234.61C774.658 234.05 775.148 233.385 775.568 232.615C776.058 231.845 776.443 230.9 776.723 229.78C777.073 228.66 777.318 227.33 777.458 225.79C777.668 224.18 777.773 222.29 777.773 220.12V181.585C777.773 180.325 777.878 179.345 778.088 178.645C778.298 177.875 778.613 177.315 779.033 176.965C779.523 176.545 780.118 176.3 780.818 176.23C781.588 176.09 782.533 176.02 783.653 176.02H787.013C787.923 176.02 788.378 176.475 788.378 177.385V220.435ZM809.07 177.805C809.07 176.825 809.525 176.335 810.435 176.335C811.975 176.265 813.69 176.195 815.58 176.125C817.54 176.055 819.5 175.985 821.46 175.915C823.49 175.845 825.485 175.81 827.445 175.81C829.475 175.74 831.365 175.705 833.115 175.705C836.545 175.705 839.485 175.775 841.935 175.915C844.385 176.055 846.45 176.265 848.13 176.545C849.88 176.825 851.315 177.175 852.435 177.595C853.555 178.015 854.535 178.505 855.375 179.065C857.125 180.255 858.525 182.075 859.575 184.525C860.625 186.905 861.15 190.09 861.15 194.08C861.15 198.28 860.625 201.815 859.575 204.685C858.525 207.555 857.16 210.11 855.48 212.35C854.78 213.26 854.29 213.995 854.01 214.555C853.73 215.115 853.59 215.745 853.59 216.445C853.59 217.215 853.73 218.16 854.01 219.28C854.29 220.33 854.78 221.8 855.48 223.69L863.565 244.9C863.775 245.46 863.74 245.95 863.46 246.37C863.25 246.79 862.865 247 862.305 247H859.785C857.265 247 855.305 246.545 853.905 245.635C852.575 244.725 851.455 242.87 850.545 240.07L845.085 225.265C844.595 224.005 844.07 222.955 843.51 222.115C843.02 221.275 842.425 220.645 841.725 220.225C841.095 219.735 840.325 219.42 839.415 219.28C838.505 219.07 837.42 218.965 836.16 218.965H821.775C820.935 218.965 820.34 219.14 819.99 219.49C819.64 219.77 819.465 220.4 819.465 221.38V244.69C819.465 245.6 819.325 246.23 819.045 246.58C818.765 246.86 818.205 247 817.365 247H810.33C809.77 247 809.42 246.895 809.28 246.685C809.14 246.405 809.07 246.02 809.07 245.53V177.805ZM850.44 195.97C850.44 193.59 850.16 191.665 849.6 190.195C849.04 188.655 848.27 187.465 847.29 186.625C846.45 185.925 844.91 185.4 842.67 185.05C840.43 184.7 837.315 184.525 833.325 184.525C831.085 184.525 828.845 184.56 826.605 184.63C824.365 184.63 822.58 184.7 821.25 184.84C820.62 184.91 820.13 185.085 819.78 185.365C819.5 185.645 819.36 186.17 819.36 186.94V207.625C819.36 208.605 819.5 209.27 819.78 209.62C820.06 209.9 820.655 210.04 821.565 210.04H837.525C839.555 210.04 841.06 210.005 842.04 209.935C843.09 209.795 844 209.585 844.77 209.305C845.26 209.095 845.82 208.64 846.45 207.94C847.15 207.24 847.78 206.33 848.34 205.21C848.97 204.02 849.46 202.655 849.81 201.115C850.23 199.575 850.44 197.86 850.44 195.97ZM927.522 224.635C927.522 229.465 926.962 233.385 925.842 236.395C924.722 239.335 923.252 241.61 921.432 243.22C920.592 243.92 919.542 244.55 918.282 245.11C917.092 245.67 915.587 246.16 913.767 246.58C911.947 247 909.777 247.315 907.257 247.525C904.737 247.805 901.797 247.945 898.437 247.945C893.957 247.945 890.037 247.735 886.677 247.315C883.317 246.895 881.077 246.37 879.957 245.74C878.767 245.04 877.717 243.885 876.807 242.275C875.967 240.595 875.547 239.09 875.547 237.76C875.547 237.2 875.722 236.815 876.072 236.605C876.492 236.325 876.912 236.22 877.332 236.29C878.382 236.5 879.712 236.745 881.322 237.025C883.002 237.235 884.787 237.445 886.677 237.655C888.567 237.865 890.492 238.04 892.452 238.18C894.482 238.32 896.407 238.39 898.227 238.39C902.987 238.39 906.487 238.18 908.727 237.76C910.967 237.27 912.507 236.64 913.347 235.87C914.327 235.1 915.097 234.05 915.657 232.72C916.217 231.32 916.497 229.395 916.497 226.945C916.497 224.915 916.322 223.41 915.972 222.43C915.622 221.45 915.167 220.75 914.607 220.33C914.117 219.91 912.997 219.455 911.247 218.965C909.497 218.405 907.397 217.88 904.947 217.39C902.567 216.83 899.977 216.27 897.177 215.71C894.447 215.15 891.822 214.59 889.302 214.03C886.852 213.47 884.647 212.91 882.687 212.35C880.797 211.79 879.467 211.265 878.697 210.775C877.437 209.865 876.492 208.325 875.862 206.155C875.302 203.915 875.022 201.325 875.022 198.385C875.022 193.765 875.582 190.055 876.702 187.255C877.822 184.455 879.292 182.25 881.112 180.64C883.142 178.89 886.047 177.525 889.827 176.545C893.607 175.565 898.472 175.075 904.422 175.075C913.312 175.075 918.947 175.635 921.327 176.755C921.887 177.035 922.412 177.49 922.902 178.12C923.462 178.68 923.952 179.345 924.372 180.115C924.792 180.815 925.142 181.55 925.422 182.32C925.702 183.09 925.842 183.79 925.842 184.42C925.842 184.91 925.667 185.295 925.317 185.575C925.037 185.855 924.687 185.96 924.267 185.89C922.167 185.68 919.437 185.4 916.077 185.05C912.787 184.7 909.182 184.525 905.262 184.525C900.642 184.525 897.037 184.805 894.447 185.365C891.857 185.925 890.037 186.59 888.987 187.36C887.937 188.27 887.132 189.53 886.572 191.14C886.012 192.75 885.732 194.57 885.732 196.6C885.732 198.21 885.837 199.47 886.047 200.38C886.327 201.29 886.642 201.99 886.992 202.48C887.412 202.97 888.497 203.495 890.247 204.055C891.997 204.545 894.097 205.07 896.547 205.63C898.997 206.19 901.622 206.75 904.422 207.31C907.222 207.8 909.917 208.325 912.507 208.885C915.097 209.445 917.372 210.005 919.332 210.565C921.362 211.055 922.762 211.545 923.532 212.035C924.722 212.805 925.667 214.205 926.367 216.235C927.137 218.265 927.522 221.065 927.522 224.635Z" fill="#F2D14E"></path></svg> 